<svg preserveAspectRatio="none" overflow="visible" style="display: block;" width="260" height="248" viewBox="0 0 260 248" fill="none" xmlns="http://www.w3.org/2000/svg">
<path id="Subtract" d="M204.419 15.2643C205.078 23.5844 212.023 30 220.369 30H244C252.837 30 260 37.1634 260 46V232C260 240.837 252.837 248 244 248H77.5153C69.9815 248 63.4684 242.744 61.8766 235.381L58.9018 221.619C57.3099 214.256 50.7968 209 43.263 209H16C7.16344 209 0 201.837 0 193V16C0 7.16344 7.16344 0 16 0H188.427C196.773 0 203.718 6.41557 204.377 14.7357L204.419 15.2643Z" fill="white"/>
</svg>
