<svg preserveAspectRatio="none" overflow="visible" style="display: block;" width="19.5027" height="21.5" viewBox="0 0 19.5027 21.5" fill="none" xmlns="http://www.w3.org/2000/svg">
<g id="elements">
<path id="Vector" d="M11.3682 20.117C10.9345 20.523 10.3548 20.75 9.75154 20.75C9.14827 20.75 8.5686 20.523 8.13491 20.117C4.16344 16.376 -1.15882 12.1969 1.43669 6.12966C2.84005 2.84916 6.20876 0.75 9.75154 0.75C13.2943 0.75 16.663 2.84916 18.0664 6.12966C20.6586 12.1893 15.3494 16.3889 11.3682 20.117Z" stroke="white" stroke-width="1.5"/>
<path id="Ellipse 1590" d="M13.2504 9.75C13.2504 11.683 11.6834 13.25 9.75042 13.25C7.81742 13.25 6.25042 11.683 6.25042 9.75C6.25042 7.817 7.81742 6.25 9.75042 6.25C11.6834 6.25 13.2504 7.817 13.2504 9.75Z" stroke="white" stroke-width="1.5"/>
</g>
</svg>
